<?xml version="1.0" encoding="UTF-8"?>
<svg version="1.1" xmlns="http://www.w3.org/2000/svg" width="184" height="50">
<path d="M0 0 C6.86292292 4.21200849 10.98074745 8.92570492 13.15234375 16.71484375 C13.35537109 17.56755859 13.35537109 17.56755859 13.5625 18.4375 C13.8925 18.4375 14.2225 18.4375 14.5625 18.4375 C15.4071271 27.25916083 13.42776599 33.55312587 7.91796875 40.515625 C3.26841611 45.51153258 -0.97412729 48.18925826 -7.81640625 48.6796875 C-18.28798142 48.87623427 -18.28798142 48.87623427 -23.4375 46.4375 C-23.4375 45.7775 -23.4375 45.1175 -23.4375 44.4375 C-22.303125 44.499375 -21.16875 44.56125 -20 44.625 C-11.98672374 44.56846895 -5.96096687 41.8800601 -0.16015625 36.390625 C4.58154077 31.01455128 7.64402023 23.48269621 7.52734375 16.26171875 C7.1637575 12.64568825 6.59778933 10.49043399 4.5625 7.4375 C4.39234375 8.63246094 4.2221875 9.82742188 4.046875 11.05859375 C0.82511165 32.62084539 0.82511165 32.62084539 -7.4375 39.4375 C-10.62462146 41.39199543 -12.97324394 41.66024358 -16.6875 41.5625 C-18.02554687 41.53542969 -18.02554687 41.53542969 -19.390625 41.5078125 C-20.06609375 41.48460937 -20.7415625 41.46140625 -21.4375 41.4375 C-21.7675 40.7775 -22.0975 40.1175 -22.4375 39.4375 C-23.4275 40.7575 -24.4175 42.0775 -25.4375 43.4375 C-29.44012312 42.52261472 -31.05411144 40.90874794 -33.1875 37.5625 C-37.30601292 30.70700065 -37.2996894 23.26482734 -36.4375 15.4375 C-33.74431593 7.72800363 -28.57186994 3.12019382 -21.4375 -0.5625 C-14.96403702 -2.72032099 -6.27908747 -2.89233557 0 0 Z M-29.10546875 17.31640625 C-32.30070651 21.74677793 -33.147391 25.66381038 -32.87109375 31.09765625 C-32.19831891 34.72821598 -30.85624793 36.66305384 -28.4375 39.4375 C-27.7775 39.7675 -27.1175 40.0975 -26.4375 40.4375 C-26.47230469 39.34050781 -26.50710937 38.24351563 -26.54296875 37.11328125 C-26.57111865 35.65886955 -26.59841752 34.2044412 -26.625 32.75 C-26.65013672 32.02876953 -26.67527344 31.30753906 -26.70117188 30.56445312 C-26.76411115 25.9698864 -26.34376411 23.04689253 -23.4375 19.4375 C-17.5607168 15.88925354 -11.23307523 13.94392788 -4.70703125 11.87890625 C-1.08122777 10.28043375 0.95219242 8.38208426 3.5625 5.4375 C-7.52773957 -0.10761979 -21.96375205 9.27152164 -29.10546875 17.31640625 Z M11.5625 19.4375 C12.5625 23.4375 12.5625 23.4375 12.5625 23.4375 Z M10.5625 24.4375 C11.5625 27.4375 11.5625 27.4375 11.5625 27.4375 Z M-17.4375 26.4375 C-17.1075 27.4275 -16.7775 28.4175 -16.4375 29.4375 C-16.1075 28.4475 -15.7775 27.4575 -15.4375 26.4375 C-16.0975 26.4375 -16.7575 26.4375 -17.4375 26.4375 Z M-18.4375 29.4375 C-18.4375 32.4375 -18.4375 32.4375 -18.4375 32.4375 Z M8.5625 30.4375 C9.5625 32.4375 9.5625 32.4375 9.5625 32.4375 Z M-20.4375 32.4375 C-19.4375 34.4375 -19.4375 34.4375 -19.4375 34.4375 Z M-21.4375 34.4375 C-20.4375 37.4375 -20.4375 37.4375 -20.4375 37.4375 Z " fill="#4AAF46" transform="translate(36.4375,1.5625)"/>
<path d="M0 0 C3.3 0 6.6 0 10 0 C10 2.31 10 4.62 10 7 C8.02 7 6.04 7 4 7 C4 8.32 4 9.64 4 11 C6.31 11 8.62 11 11 11 C11.66 9.68 12.32 8.36 13 7 C15.3125 6.75 15.3125 6.75 18 7 C19.8125 9 19.8125 9 21 11 C21.33 9.68 21.66 8.36 22 7 C22.763125 7.185625 23.52625 7.37125 24.3125 7.5625 C27.08967375 8.22819173 27.08967375 8.22819173 30 7 C30.33 7.66 30.66 8.32 31 9 C31.33 8.34 31.66 7.68 32 7 C37.625 6.75 37.625 6.75 41 9 C41.66 8.34 42.32 7.68 43 7 C46.625 6.875 46.625 6.875 50 7 C50.33 5.02 50.66 3.04 51 1 C52.32 1 53.64 1 55 1 C55 2.98 55 4.96 55 7 C56.94603274 7.59070014 56.94603274 7.59070014 59 8 C59.33 7.67 59.66 7.34 60 7 C63 6.875 63 6.875 66 7 C67 8 67 8 67.0625 11.0625 C67.041875 12.031875 67.02125 13.00125 67 14 C65.35 13.67 63.7 13.34 62 13 C62.495 13.99 62.495 13.99 63 15 C63.99 15.33 64.98 15.66 66 16 C68.1104248 18.638031 68.10386261 20.82778037 67.8125 24.0625 C67.5425984 26.44586839 67.17523303 27.74991014 65.79296875 29.72265625 C63.30887186 31.49237233 61.52441802 31.39939047 58.5 31.375 C57.5409375 31.38273437 56.581875 31.39046875 55.59375 31.3984375 C52.66918495 30.94918203 51.792665 30.28928166 50 28 C49.608125 28.495 49.21625 28.99 48.8125 29.5 C47 31 47 31 44.4375 31.25 C42 31 42 31 40 30 C39.05125 30.226875 38.1025 30.45375 37.125 30.6875 C34 31 34 31 31.6875 29.25 C29.19112978 25.92150638 28.87898255 23.35020438 28.9375 19.3125 C28.94652344 18.50425781 28.95554688 17.69601563 28.96484375 16.86328125 C28.97644531 16.24839844 28.98804688 15.63351563 29 15 C28.01 15 27.02 15 26 15 C26 19.95 26 24.9 26 30 C24.68 30 23.36 30 22 30 C21.67 29.01 21.34 28.02 21 27 C20.01 28.32 19.02 29.64 18 31 C12.45574388 30.51789077 12.45574388 30.51789077 10.625 28.4375 C9.71705055 24.89649716 9.87825558 21.65233264 10 18 C8.02 18 6.04 18 4 18 C4 21.96 4 25.92 4 30 C2.68 30 1.36 30 0 30 C0 20.1 0 10.2 0 0 Z M15 12 C13.73762269 14.52475462 13.90143596 16.31200466 13.9375 19.125 C13.94652344 20.03507812 13.95554687 20.94515625 13.96484375 21.8828125 C13.97644531 22.58148438 13.98804687 23.28015625 14 24 C14.99 24 15.98 24 17 24 C17 20.37 17 16.74 17 13 C16.34 12.67 15.68 12.34 15 12 Z M34 12 C33.67 13.32 33.34 14.64 33 16 C34.32 16 35.64 16 37 16 C36.67 14.68 36.34 13.36 36 12 C35.34 12 34.68 12 34 12 Z M45 12 C45 12.99 45 13.98 45 15 C45.928125 15.12375 45.928125 15.12375 46.875 15.25 C49 16 49 16 50.25 18.0625 C50.4975 18.701875 50.745 19.34125 51 20 C51 17.69 51 15.38 51 13 C48.03 12.505 48.03 12.505 45 12 Z M55 13 C55 16.96 55 20.92 55 25 C55.66 25 56.32 25 57 25 C57 24.34 57 23.68 57 23 C57.99 23.66 58.98 24.32 60 25 C60.99 25 61.98 25 63 25 C62.24001203 21.9270051 62.24001203 21.9270051 60 20.125 C57.72939356 17.71248065 57.35991425 16.23922825 57 13 C56.34 13 55.68 13 55 13 Z M33 20 C33.66 21.65 34.32 23.3 35 25 C36.0725 24.814375 37.145 24.62875 38.25 24.4375 C41.40391546 24.0695432 43.09818492 23.95534657 46 25 C45.24849977 21.72226496 45.24849977 21.72226496 42 20 C39.71351152 19.75892674 39.71351152 19.75892674 37.3125 19.875 C36.50425781 19.89304687 35.69601563 19.91109375 34.86328125 19.9296875 C34.24839844 19.95289062 33.63351563 19.97609375 33 20 Z " fill="#4BAF47" transform="translate(112,9)"/>
<path d="M0 0 C1.32 0 2.64 0 4 0 C4.33 3.63 4.66 7.26 5 11 C5.66 10.01 6.32 9.02 7 8 C10 7.6875 10 7.6875 13 8 C13.66 8.66 14.32 9.32 15 10 C15.33 6.7 15.66 3.4 16 0 C17.32 0 18.64 0 20 0 C20.33 2.64 20.66 5.28 21 8 C22.65 8 24.3 8 26 8 C26.33 8.66 26.66 9.32 27 10 C27.66 9.34 28.32 8.68 29 8 C32.5 7.75 32.5 7.75 36 8 C38 10 38 10 38.22705078 12.15478516 C38.21657715 13.02409668 38.20610352 13.8934082 38.1953125 14.7890625 C38.18886719 15.73007812 38.18242188 16.67109375 38.17578125 17.640625 C38.15902344 18.62546875 38.14226562 19.6103125 38.125 20.625 C38.11597656 21.61757813 38.10695312 22.61015625 38.09765625 23.6328125 C38.07404116 26.08878134 38.04110799 28.54427168 38 31 C30.25 32.1796875 30.25 32.1796875 28 30.5625 C27.67 30.046875 27.34 29.53125 27 29 C26.67 29.515625 26.34 30.03125 26 30.5625 C23.57514146 32.30536708 22.77461588 32.12428665 19.875 31.8125 C18.59625 31.544375 17.3175 31.27625 16 31 C15.67 30.34 15.34 29.68 15 29 C14.608125 29.515625 14.21625 30.03125 13.8125 30.5625 C12 32 12 32 9.4375 31.875 C7 31 7 31 5 28 C4.67 28.99 4.34 29.98 4 31 C2.68 31 1.36 31 0 31 C0 20.77 0 10.54 0 0 Z M28 15 C28.33 16.32 28.66 17.64 29 19 C30.65 18.01 32.3 17.02 34 16 C33.67 15.01 33.34 14.02 33 13 C30.67642489 12.81509993 30.67642489 12.81509993 28 15 Z M9 14 C7.9187609 20.06050614 7.9187609 20.06050614 9 26 C9.66 26 10.32 26 11 26 C12.12256131 23.75487738 12.13413762 22.48543351 12.125 20 C12.12757812 19.29875 12.13015625 18.5975 12.1328125 17.875 C12.11377236 15.90846225 12.11377236 15.90846225 11 14 C10.34 14 9.68 14 9 14 Z M21 14 C19.71387324 15.05978933 19.71387324 15.05978933 19.90234375 17.50390625 C19.91394531 18.51324219 19.92554687 19.52257812 19.9375 20.5625 C19.94652344 21.57441406 19.95554687 22.58632813 19.96484375 23.62890625 C19.97644531 24.41136719 19.98804687 25.19382812 20 26 C20.99 25.67 21.98 25.34 23 25 C23.185625 23.741875 23.37125 22.48375 23.5625 21.1875 C23.66691406 20.47980469 23.77132812 19.77210937 23.87890625 19.04296875 C24.13904799 16.7974658 24.13904799 16.7974658 23 14 C22.34 14 21.68 14 21 14 Z M32 21 C31.67 22.32 31.34 23.64 31 25 C31.99 25.33 32.98 25.66 34 26 C34 24.35 34 22.7 34 21 C33.34 21 32.68 21 32 21 Z " fill="#FFFFFF" transform="translate(67,8)"/>
<path d="M0 0 C3 0.375 3 0.375 6 2.375 C6.40843923 5.08703652 6.13336867 7.6187142 6 10.375 C5.34 10.375 4.68 10.375 4 10.375 C3.34 9.385 2.68 8.395 2 7.375 C-1.11785113 8.02144661 -1.11785113 8.02144661 -2 10.375 C-2.14716542 12.18343663 -2.2210887 13.99831566 -2.25 15.8125 C-2.27578125 16.78058594 -2.3015625 17.74867187 -2.328125 18.74609375 C-2.2307088 21.42883927 -2.2307088 21.42883927 -0.484375 23.22265625 C0.00546875 23.60292969 0.4953125 23.98320313 1 24.375 C1.33 23.055 1.66 21.735 2 20.375 C1.01 20.375 0.02 20.375 -1 20.375 C-1 18.065 -1 15.755 -1 13.375 C1.31 13.375 3.62 13.375 6 13.375 C6 18.655 6 23.935 6 29.375 C1.6637445 31.54312775 0.49018962 31.80803924 -4 30.375 C-8.41201527 24.52749651 -8.52835128 16.9781701 -7.71484375 9.890625 C-6.57388998 4.78989051 -5.5481435 0.69351794 0 0 Z " fill="#FFFFFF" transform="translate(60,8.625)"/>
<path d="M0 0 C1.32 0 2.64 0 4 0 C4 10.23 4 20.46 4 31 C2.68 31 1.36 31 0 31 C0 20.77 0 10.54 0 0 Z " fill="#FFFFFF" transform="translate(106,8)"/>
</svg>
