<?xml version="1.0" encoding="UTF-8"?>
<svg version="1.1" xmlns="http://www.w3.org/2000/svg" width="184" height="50">
<path d="M0 0 C5.45173506 3.33161587 8.94930158 8.09234493 10.921875 14.11328125 C12.47813769 20.93961534 12.32051192 26.55913367 8.875 32.75 C5.36849579 37.9765193 1.49442666 41.35602445 -4.5625 43.375 C-6.68500645 43.49540604 -8.81161587 43.55033819 -10.9375 43.5625 C-12.05898438 43.57667969 -13.18046875 43.59085938 -14.3359375 43.60546875 C-17.51134842 43.37865368 -19.70484718 42.72890668 -22.5625 41.375 C-22.5625 40.715 -22.5625 40.055 -22.5625 39.375 C-21.99402344 39.40980469 -21.42554688 39.44460937 -20.83984375 39.48046875 C-12.80800608 39.76205237 -7.11103665 37.50469258 -1.13671875 32.12109375 C3.2878399 27.21345674 5.56087226 20.94168048 5.625 14.375 C5.63917969 13.715 5.65335938 13.055 5.66796875 12.375 C5.39783125 10.03075596 4.59059605 8.41684597 3.4375 6.375 C3.19966797 8.04175781 3.19966797 8.04175781 2.95703125 9.7421875 C-0.0143784 29.22946333 -0.0143784 29.22946333 -6.1953125 34.86328125 C-10.23838388 37.50124935 -13.85759502 37.82739471 -18.5625 37.375 C-19.5525 37.045 -20.5425 36.715 -21.5625 36.375 C-22.2225 37.035 -22.8825 37.695 -23.5625 38.375 C-26.64353199 38.27229893 -27.55659349 37.38125395 -29.6875 35.125 C-33.03014221 30.22245809 -33.85568541 26.36707948 -33.875 20.4375 C-33.89175781 19.25285156 -33.90851562 18.06820313 -33.92578125 16.84765625 C-33.28006601 10.67517404 -30.69035337 7.03474081 -26.0625 3.0625 C-25.2890625 2.38574219 -24.515625 1.70898438 -23.71875 1.01171875 C-17.6936857 -3.56165433 -6.68395577 -3.08588763 0 0 Z M-23.5625 12.375 C-24.15417969 12.91253906 -24.74585938 13.45007813 -25.35546875 14.00390625 C-29.0241082 17.75968678 -30.47780056 20.9630562 -30.73828125 26.2265625 C-30.47141261 29.48829028 -29.39185322 31.69630421 -27.5625 34.375 C-26.5725 35.035 -25.5825 35.695 -24.5625 36.375 C-24.63210937 35.27800781 -24.70171875 34.18101563 -24.7734375 33.05078125 C-24.82973552 31.59641562 -24.8843335 30.14198348 -24.9375 28.6875 C-24.98777344 27.96626953 -25.03804687 27.24503906 -25.08984375 26.50195312 C-25.20391475 22.33836163 -24.98495727 20.85829659 -22.1484375 17.61328125 C-18.06790095 14.75159844 -13.43782693 13.03113807 -8.8125 11.25 C-7.10601517 10.58934294 -5.40270037 9.9204218 -3.703125 9.2421875 C-2.95579102 8.95456543 -2.20845703 8.66694336 -1.43847656 8.37060547 C0.77195931 7.38781286 0.77195931 7.38781286 2.4375 4.375 C-7.86553584 2.27623344 -15.87770039 5.38133869 -23.5625 12.375 Z M9.4375 18.375 C10.4375 20.375 10.4375 20.375 10.4375 20.375 Z M-18.5625 27.375 C-17.5625 29.375 -17.5625 29.375 -17.5625 29.375 Z M-19.5625 29.375 C-18.5625 31.375 -18.5625 31.375 -18.5625 31.375 Z M-20.5625 31.375 C-19.5625 34.375 -19.5625 34.375 -19.5625 34.375 Z " fill="#6ABD67" transform="translate(40.5625,4.625)"/>
<path d="M0 0 C0.33 0 0.66 0 1 0 C0.70304457 10.17072357 0.15143723 19.91448939 -6.5 28.0625 C-11.22452135 31.72400404 -13.92173923 32.31990846 -20 32 C-21.67557379 31.71479595 -23.34817245 31.40044304 -25 31 C-26.52851212 27.36978372 -27.28506803 23.90765881 -27.5625 20 C-27.62566406 19.195625 -27.68882813 18.39125 -27.75390625 17.5625 C-26.52064975 13.3707059 -23.55915401 11.36096318 -20 9 C-16.78756836 7.34000351 -13.49458862 5.99360201 -10.125 4.6875 C-8.41855891 4.00568537 -6.71279044 3.32218402 -5.0078125 2.63671875 C-4.26160645 2.34498779 -3.51540039 2.05325684 -2.74658203 1.75268555 C-1.00767886 1.13085472 -1.00767886 1.13085472 0 0 Z M-20 22 C-19 24 -19 24 -19 24 Z M-21 24 C-20 26 -20 26 -20 26 Z M-22 26 C-21 29 -21 29 -21 29 Z " fill="#58B454" transform="translate(42,10)"/>
<path d="M0 0 C0.33 1.65 0.66 3.3 1 5 C-0.134375 4.979375 -1.26875 4.95875 -2.4375 4.9375 C-5.81575674 4.58422523 -5.81575674 4.58422523 -7 6 C-4.36 6 -1.72 6 1 6 C1 8.64 1 11.28 1 14 C-0.58129029 14.22331199 -2.16521089 14.42804644 -3.75 14.625 C-4.63171875 14.74101562 -5.5134375 14.85703125 -6.421875 14.9765625 C-9.26349367 15.0023954 -10.64837549 14.55715677 -13 13 C-14.72635342 9.54729316 -14.48406441 5.77570243 -14 2 C-10.57840477 -2.5165057 -4.91254797 -1.63751599 0 0 Z M-7 9 C-6 11 -6 11 -6 11 Z " fill="#000000" transform="translate(75,9)"/>
<path d="M0 0 C2.31 0 4.62 0 7 0 C7 0.99 7 1.98 7 3 C9.31 3 11.62 3 14 3 C14 6.96 14 10.92 14 15 C8.97703996 16.13016601 5.02125926 15.77916092 0 15 C0 10.05 0 5.1 0 0 Z M7 5 C7 7.64 7 10.28 7 13 C7.33 13 7.66 13 8 13 C8 10.36 8 7.72 8 5 C7.67 5 7.34 5 7 5 Z " fill="#000000" transform="translate(109,8)"/>
<path d="M0 0 C0.33 0 0.66 0 1 0 C1.84876783 5.5169909 -0.19230913 8.61313623 -3.27734375 12.9453125 C-6.32807995 16.58405908 -9.47101527 18.49033842 -14 20 C-16.12250645 20.12040604 -18.24911587 20.17533819 -20.375 20.1875 C-21.49648438 20.20167969 -22.61796875 20.21585938 -23.7734375 20.23046875 C-26.94884842 20.00365368 -29.14234718 19.35390668 -32 18 C-32 17.34 -32 16.68 -32 16 C-31.43152344 16.03480469 -30.86304687 16.06960937 -30.27734375 16.10546875 C-20.13683512 16.46097907 -14.57870327 12.27262289 -7 6 C-6.34 6.33 -5.68 6.66 -5 7 C-5 7.99 -5 8.98 -5 10 C-3.35 6.7 -1.7 3.4 0 0 Z " fill="#63B95F" transform="translate(50,28)"/>
<path d="M0 0 C1.3303125 0.00773437 1.3303125 0.00773437 2.6875 0.015625 C3.574375 0.01046875 4.46125 0.0053125 5.375 0 C7.6875 0.265625 7.6875 0.265625 9.6875 2.265625 C9.8828125 4.4296875 9.8828125 4.4296875 9.8125 6.890625 C9.79445313 7.70789062 9.77640625 8.52515625 9.7578125 9.3671875 C9.72300781 10.30691406 9.72300781 10.30691406 9.6875 11.265625 C5.26260142 13.84516229 2.623862 13.2210499 -2.3125 12.265625 C-4.3125 10.265625 -4.3125 10.265625 -4.578125 8.390625 C-4.57296875 7.689375 -4.5678125 6.988125 -4.5625 6.265625 C-4.56765625 5.564375 -4.5728125 4.863125 -4.578125 4.140625 C-4.15039663 1.12136592 -2.93875093 0.33755923 0 0 Z M2.6875 7.265625 C3.6875 10.265625 3.6875 10.265625 3.6875 10.265625 Z " fill="#000000" transform="translate(111.3125,28.734375)"/>
<path d="M0 0 C1.48306641 0.02126953 1.48306641 0.02126953 2.99609375 0.04296875 C3.98738281 0.04941406 4.97867188 0.05585938 6 0.0625 C8.43359375 0.23046875 8.43359375 0.23046875 9.43359375 1.23046875 C9.50585877 3.08334377 9.51740595 4.93880753 9.49609375 6.79296875 C9.48707031 7.80488281 9.47804687 8.81679688 9.46875 9.859375 C9.45714844 10.64183594 9.44554687 11.42429687 9.43359375 12.23046875 C7.66445551 12.45273739 5.89315004 12.65780748 4.12109375 12.85546875 C2.64189453 13.02949219 2.64189453 13.02949219 1.1328125 13.20703125 C-1.56640625 13.23046875 -1.56640625 13.23046875 -4.56640625 11.23046875 C-4.38078125 10.48796875 -4.19515625 9.74546875 -4.00390625 8.98046875 C-3.39168197 6.30817502 -3.39168197 6.30817502 -4.12890625 4.04296875 C-4.27328125 3.44484375 -4.41765625 2.84671875 -4.56640625 2.23046875 C-2.56640625 0.23046875 -2.56640625 0.23046875 0 0 Z M2.43359375 7.23046875 C3.43359375 10.23046875 3.43359375 10.23046875 3.43359375 10.23046875 Z " fill="#000000" transform="translate(131.56640625,10.76953125)"/>
<path d="M0 0 C1.3303125 0.00773438 1.3303125 0.00773438 2.6875 0.015625 C3.574375 0.01046875 4.46125 0.0053125 5.375 0 C7.6875 0.265625 7.6875 0.265625 9.6875 2.265625 C9.8828125 4.4296875 9.8828125 4.4296875 9.8125 6.890625 C9.79445313 7.70789063 9.77640625 8.52515625 9.7578125 9.3671875 C9.72300781 10.30691406 9.72300781 10.30691406 9.6875 11.265625 C6.5633675 13.1243766 4.59432466 13.46714347 1 13.015625 C0.21238281 12.92796875 -0.57523437 12.8403125 -1.38671875 12.75 C-2.02222656 12.59015625 -2.65773438 12.4303125 -3.3125 12.265625 C-4.42695498 10.03671505 -4.47730286 8.73507394 -4.5 6.265625 C-4.51417969 5.564375 -4.52835937 4.863125 -4.54296875 4.140625 C-4.17028264 1.10860243 -2.93310908 0.33691118 0 0 Z M2.6875 3.265625 C2.6875 5.575625 2.6875 7.885625 2.6875 10.265625 C3.0175 10.265625 3.3475 10.265625 3.6875 10.265625 C3.6875 7.955625 3.6875 5.645625 3.6875 3.265625 C3.3575 3.265625 3.0275 3.265625 2.6875 3.265625 Z " fill="#000000" transform="translate(95.3125,10.734375)"/>
<path d="M0 0 C2.3125 -0.328125 2.3125 -0.328125 5 -0.25 C6.3303125 -0.22679688 6.3303125 -0.22679688 7.6875 -0.203125 C10 0 10 0 12 1 C12 4.3 12 7.6 12 11 C6.97600188 13.51199906 5.37626894 13.04056818 0 12 C-2 10 -2 10 -2.25 6.5625 C-2 3 -2 3 0 0 Z M5 2 C5 4.64 5 7.28 5 10 C5.33 10 5.66 10 6 10 C6 7.36 6 4.72 6 2 C5.67 2 5.34 2 5 2 Z " fill="#000000" transform="translate(77,29)"/>
<path d="M0 0 C1.51400391 0.01740234 1.51400391 0.01740234 3.05859375 0.03515625 C4.07050781 0.04417969 5.08242187 0.05320312 6.125 0.0625 C7.29869141 0.07990234 7.29869141 0.07990234 8.49609375 0.09765625 C9.04957015 2.17319273 9.49609375 3.94131589 9.49609375 6.09765625 C9.81412318 7.76731076 10.14594326 9.43444143 10.49609375 11.09765625 C7.32118435 13.00551465 5.39024164 13.25856035 1.74609375 12.72265625 C0.946875 12.61179687 0.14765625 12.5009375 -0.67578125 12.38671875 C-1.58070313 12.24363281 -1.58070313 12.24363281 -2.50390625 12.09765625 C-2.83390625 10.77765625 -3.16390625 9.45765625 -3.50390625 8.09765625 C-2.84390625 7.76765625 -2.18390625 7.43765625 -1.50390625 7.09765625 C-2.16390625 6.76765625 -2.82390625 6.43765625 -3.50390625 6.09765625 C-3.54662725 4.4315372 -3.54454457 2.7638274 -3.50390625 1.09765625 C-2.50390625 0.09765625 -2.50390625 0.09765625 0 0 Z M2.49609375 2.09765625 C3.49609375 4.09765625 3.49609375 4.09765625 3.49609375 4.09765625 Z M2.49609375 8.09765625 C2.49609375 8.75765625 2.49609375 9.41765625 2.49609375 10.09765625 C3.15609375 9.76765625 3.81609375 9.43765625 4.49609375 9.09765625 C3.83609375 8.76765625 3.17609375 8.43765625 2.49609375 8.09765625 Z " fill="#000000" transform="translate(157.50390625,28.90234375)"/>
<path d="M0 0 C1.51400391 0.01740234 1.51400391 0.01740234 3.05859375 0.03515625 C4.07050781 0.04417969 5.08242187 0.05320312 6.125 0.0625 C7.29869141 0.07990234 7.29869141 0.07990234 8.49609375 0.09765625 C9.15609375 1.41765625 9.81609375 2.73765625 10.49609375 4.09765625 C9.50609375 4.59265625 9.50609375 4.59265625 8.49609375 5.09765625 C9.15609375 5.42765625 9.81609375 5.75765625 10.49609375 6.09765625 C10.49609375 7.74765625 10.49609375 9.39765625 10.49609375 11.09765625 C7.32118435 13.00551465 5.39024164 13.25856035 1.74609375 12.72265625 C0.946875 12.61179687 0.14765625 12.5009375 -0.67578125 12.38671875 C-1.58070312 12.24363281 -1.58070312 12.24363281 -2.50390625 12.09765625 C-2.83390625 10.77765625 -3.16390625 9.45765625 -3.50390625 8.09765625 C-2.84390625 7.76765625 -2.18390625 7.43765625 -1.50390625 7.09765625 C-2.16390625 6.76765625 -2.82390625 6.43765625 -3.50390625 6.09765625 C-3.54662725 4.4315372 -3.54454457 2.7638274 -3.50390625 1.09765625 C-2.50390625 0.09765625 -2.50390625 0.09765625 0 0 Z M2.49609375 2.09765625 C3.49609375 4.09765625 3.49609375 4.09765625 3.49609375 4.09765625 Z M2.49609375 8.09765625 C2.49609375 8.75765625 2.49609375 9.41765625 2.49609375 10.09765625 C3.15609375 10.09765625 3.81609375 10.09765625 4.49609375 10.09765625 C4.49609375 9.43765625 4.49609375 8.77765625 4.49609375 8.09765625 C3.83609375 8.09765625 3.17609375 8.09765625 2.49609375 8.09765625 Z " fill="#000000" transform="translate(128.50390625,28.90234375)"/>
<path d="M0 0 C3.63 0 7.26 0 11 0 C11 1.32 11 2.64 11 4 C9.68 4 8.36 4 7 4 C7 4.66 7 5.32 7 6 C8.32 6 9.64 6 11 6 C11 6.99 11 7.98 11 9 C9.68 9 8.36 9 7 9 C7 10.98 7 12.96 7 15 C4.69 15 2.38 15 0 15 C0 10.05 0 5.1 0 0 Z " fill="#000000" transform="translate(61,26)"/>
<path d="M0 0 C0.66 0.33 1.32 0.66 2 1 C1.01 2.485 1.01 2.485 0 4 C0.66 4.66 1.32 5.32 2 6 C1.50628906 6.39832031 1.01257812 6.79664063 0.50390625 7.20703125 C-0.13675781 7.73683594 -0.77742187 8.26664063 -1.4375 8.8125 C-2.07558594 9.33457031 -2.71367187 9.85664063 -3.37109375 10.39453125 C-5.2548275 12.00834411 -5.2548275 12.00834411 -6 15 C-5.34 15 -4.68 15 -4 15 C-4.10699219 15.79664063 -4.21398437 16.59328125 -4.32421875 17.4140625 C-5.33458514 25.61648133 -5.33458514 25.61648133 -2 33 C-1.67 33.33 -1.34 33.66 -1 34 C-0.34 32.68 0.32 31.36 1 30 C1.33 31.98 1.66 33.96 2 36 C0.02 36.495 0.02 36.495 -2 37 C-7.17999922 31.13842193 -9.28626681 27.11608942 -9.3125 19.0625 C-9.32925781 17.87785156 -9.34601562 16.69320313 -9.36328125 15.47265625 C-8.62293067 8.39554155 -4.96117939 4.6304341 0 0 Z " fill="#7BC478" transform="translate(16,6)"/>
<path d="M0 0 C2.31 0 4.62 0 7 0 C7 0.66 7 1.32 7 2 C7.66 2 8.32 2 9 2 C9 2.99 9 3.98 9 5 C8.34 5 7.68 5 7 5 C7 7.31 7 9.62 7 12 C7.66 12 8.32 12 9 12 C9 12.66 9 13.32 9 14 C2.84765625 14.09765625 2.84765625 14.09765625 1 14 C-0.72488307 12.27511693 -0.41081633 9.91546061 -0.625 7.5625 C-0.76808594 6.07943359 -0.76808594 6.07943359 -0.9140625 4.56640625 C-1 2 -1 2 0 0 Z " fill="#000000" transform="translate(142,27)"/>
<path d="M0 0 C2.31 0 4.62 0 7 0 C7 4.95 7 9.9 7 15 C4.69 15 2.38 15 0 15 C0 10.05 0 5.1 0 0 Z " fill="#000000" transform="translate(145,8)"/>
<path d="M0 0 C2.31 0 4.62 0 7 0 C7 4.95 7 9.9 7 15 C4.69 15 2.38 15 0 15 C0 10.05 0 5.1 0 0 Z " fill="#000000" transform="translate(80,8)"/>
<path d="M0 0 C-0.99 0.33 -1.98 0.66 -3 1 C-3 1.66 -3 2.32 -3 3 C-3.96099609 3.4021875 -3.96099609 3.4021875 -4.94140625 3.8125 C-11.53698924 6.80066279 -15.66640912 10.21709561 -20 16 C-20.33 15.34 -20.66 14.68 -21 14 C-21.99 14.33 -22.98 14.66 -24 15 C-22.63407712 9.36556814 -18.47797934 6.29742115 -14 3 C-9.4394397 0.23455386 -5.31674014 -0.3255147 0 0 Z " fill="#54B350" transform="translate(33,7)"/>
<path d="M0 0 C3.3 0 6.6 0 10 0 C10 1.32 10 2.64 10 4 C9.01 4.66 8.02 5.32 7 6 C6.26656572 9.06556598 6.26656572 9.06556598 6 12 C4.02 12 2.04 12 0 12 C0 8.04 0 4.08 0 0 Z " fill="#000000" transform="translate(94,29)"/>
<path d="M0 0 C0.33 0 0.66 0 1 0 C0.67 2.97 0.34 5.94 0 9 C0.66 9 1.32 9 2 9 C2 8.34 2 7.68 2 7 C2.66 7 3.32 7 4 7 C3.67 5.68 3.34 4.36 3 3 C3.66 3 4.32 3 5 3 C5 6.63 5 10.26 5 14 C4.67 12.68 4.34 11.36 4 10 C3.67386719 10.69867188 3.34773438 11.39734375 3.01171875 12.1171875 C2.57472656 13.02726562 2.13773438 13.93734375 1.6875 14.875 C1.04361328 16.23238281 1.04361328 16.23238281 0.38671875 17.6171875 C-1 20 -1 20 -4 22 C-3.67 20.35 -3.34 18.7 -3 17 C-3.66 17 -4.32 17 -5 17 C-4.70351563 16.30519531 -4.40703125 15.61039063 -4.1015625 14.89453125 C-2.94421163 11.85340716 -2.13934996 8.84912937 -1.375 5.6875 C-1.11460938 4.61886719 -0.85421875 3.55023437 -0.5859375 2.44921875 C-0.39257812 1.64097656 -0.19921875 0.83273438 0 0 Z " fill="#7BC478" transform="translate(47,18)"/>
<path d="M0 0 C0.33 0 0.66 0 1 0 C1.16435547 1.22976562 1.16435547 1.22976562 1.33203125 2.484375 C1.49058594 3.56203125 1.64914063 4.6396875 1.8125 5.75 C1.96332031 6.81734375 2.11414063 7.8846875 2.26953125 8.984375 C3.01320407 12.05451094 3.92765472 13.66080478 6 16 C6.66 14.68 7.32 13.36 8 12 C8.33 13.98 8.66 15.96 9 18 C7.68 18.33 6.36 18.66 5 19 C-1.14174357 11.75589219 -1.14174357 11.75589219 -1.125 5.9375 C-1.12757813 5.03902344 -1.13015625 4.14054687 -1.1328125 3.21484375 C-1 1 -1 1 0 0 Z " fill="#6FBF6C" transform="translate(9,24)"/>
<path d="M0 0 C1.17755859 -0.02126953 1.17755859 -0.02126953 2.37890625 -0.04296875 C4.4375 0.1875 4.4375 0.1875 6.4375 2.1875 C5.22513672 2.46013672 5.22513672 2.46013672 3.98828125 2.73828125 C2.38533203 3.11533203 2.38533203 3.11533203 0.75 3.5 C-0.83361328 3.86544922 -0.83361328 3.86544922 -2.44921875 4.23828125 C-5.61321876 5.06478087 -5.61321876 5.06478087 -8.33203125 6.85546875 C-9.06808594 7.29503906 -9.80414062 7.73460937 -10.5625 8.1875 C-11.2225 7.8575 -11.8825 7.5275 -12.5625 7.1875 C-8.60078175 2.15504709 -6.67207054 0.05495939 0 0 Z " fill="#54B350" transform="translate(26.5625,2.8125)"/>
<path d="M0 0 C-0.47202486 4.24822374 -2.96655518 6.19989709 -6 9 C-6 8.34 -6 7.68 -6 7 C-6.99 7.33 -7.98 7.66 -9 8 C-7.38794515 3.02949753 -5.53380518 0 0 0 Z " fill="#5FB75B" transform="translate(18,14)"/>
<path d="M0 0 C0.66 0 1.32 0 2 0 C4.56786548 4.42243499 3.71809676 7.51143471 2.5078125 12.20703125 C2.34023438 12.79871094 2.17265625 13.39039063 2 14 C1.34 14 0.68 14 0 14 C0 9.38 0 4.76 0 0 Z " fill="#58B555" transform="translate(47,13)"/>
<path d="M0 0 C0.66 0.33 1.32 0.66 2 1 C0.52307692 5.67692308 0.52307692 5.67692308 -2.125 7.3125 C-3.053125 7.6528125 -3.053125 7.6528125 -4 8 C-3.6875 5.125 -3.6875 5.125 -3 2 C-2.01 1.34 -1.02 0.68 0 0 Z " fill="#51B14D" transform="translate(43,34)"/>
<path d="M0 0 C2.71435596 0.93305986 3.78043163 1.62673377 5.25 4.125 C5.4975 4.74375 5.745 5.3625 6 6 C5.34 6.66 4.68 7.32 4 8 C3.566875 7.21625 3.13375 6.4325 2.6875 5.625 C1.10779753 2.78301625 1.10779753 2.78301625 -2 1 C-1.34 0.67 -0.68 0.34 0 0 Z " fill="#7FC67C" transform="translate(42,7)"/>
<path d="M0 0 C0.66 0 1.32 0 2 0 C2 3.63 2 7.26 2 11 C1.67 9.68 1.34 8.36 1 7 C0.34 7 -0.32 7 -1 7 C-1 6.01 -1 5.02 -1 4 C-0.34 4 0.32 4 1 4 C0.67 2.68 0.34 1.36 0 0 Z " fill="#92CE90" transform="translate(50,21)"/>
<path d="M0 0 C0.33 0.66 0.66 1.32 1 2 C1.66 2.33 2.32 2.66 3 3 C1.68 3.99 0.36 4.98 -1 6 C-1.66 5.67 -2.32 5.34 -3 5 C-3 4.01 -3 3.02 -3 2 C-2.01 1.34 -1.02 0.68 0 0 Z " fill="#74C171" transform="translate(42,40)"/>
<path d="M0 0 C0.99 0.99 1.98 1.98 3 3 C2.67 3.99 2.34 4.98 2 6 C2.99 6.66 3.98 7.32 5 8 C3.35 7.67 1.7 7.34 0 7 C0 4.69 0 2.38 0 0 Z " fill="#8ECC8B" transform="translate(23,24)"/>
</svg>
