<?xml version="1.0" encoding="UTF-8"?>
<svg version="1.1" xmlns="http://www.w3.org/2000/svg" width="575" height="156">
<path d="M0 0 C9.98073888 8.25298072 18.08982239 18.89665859 20.32421875 31.921875 C22.94090064 61.09520803 13.81583955 85.17394104 -2.67578125 108.921875 C14.18216624 91.95856534 22.05569077 67.17428678 24.32421875 43.921875 C24.98421875 44.251875 25.64421875 44.581875 26.32421875 44.921875 C29.44372081 61.4552359 26.74107648 78.91814561 19.32421875 93.921875 C18.69580078 95.28699219 18.69580078 95.28699219 18.0546875 96.6796875 C9.04626556 114.90421835 -8.16663035 128.18514709 -26.98828125 134.84375 C-48.24662845 141.05911422 -71.02056516 139.28013143 -90.67578125 128.921875 C-90.67578125 128.591875 -90.67578125 128.261875 -90.67578125 127.921875 C-89.97195312 127.94282227 -89.268125 127.96376953 -88.54296875 127.98535156 C-64.02232987 128.6175743 -42.68080937 125.61788101 -23.67578125 108.921875 C-23.15056885 108.49729004 -22.62535645 108.07270508 -22.08422852 107.63525391 C-17.6663328 104.01022079 -14.13595437 100.13330794 -10.73828125 95.546875 C-10.22322021 94.85279541 -9.70815918 94.15871582 -9.17749023 93.44360352 C4.64772599 74.29717874 12.94748464 50.64253657 9.32421875 26.921875 C6.8659055 17.43814519 2.58544412 9.47603217 -5.67578125 3.921875 C-11.52357279 0.79415887 -16.47594387 0.41160139 -23.05078125 0.484375 C-24.02031738 0.49267334 -24.98985352 0.50097168 -25.98876953 0.50952148 C-50.17796154 1.06859065 -73.55015636 12.26232153 -91.67578125 27.921875 C-92.43375 28.53546875 -93.19171875 29.1490625 -93.97265625 29.78125 C-105.11124313 39.07620871 -117.22002582 54.87906889 -118.67578125 69.921875 C-119.79297168 87.09350572 -114.81259402 98.40210298 -103.60546875 111.20703125 C-101.57798929 113.00877919 -100.32737132 113.53886754 -97.67578125 113.921875 C-97.35713139 106.36869321 -97.57848788 99.49891993 -99.17578125 92.109375 C-101.65599762 80.22319187 -102.96995316 66.82948627 -96.67578125 55.921875 C-85.61862169 39.68850668 -65.78653984 34.64025909 -48.13671875 28.73046875 C-25.57831412 22.52399381 -25.57831412 22.52399381 -8.67578125 7.921875 C-8.01578125 7.921875 -7.35578125 7.921875 -6.67578125 7.921875 C-8.13384296 78.1827269 -8.13384296 78.1827269 -31.40234375 101.80859375 C-32.15257813 102.50597656 -32.9028125 103.20335938 -33.67578125 103.921875 C-34.38476562 104.58832031 -35.09375 105.25476563 -35.82421875 105.94140625 C-47.14387041 115.64688376 -60.08163611 115.73120185 -74.31152344 115.15136719 C-77.2967123 114.86160288 -79.914195 114.0763843 -82.67578125 112.921875 C-81.52303302 104.29613823 -78.41714145 96.71875542 -74.67578125 88.921875 C-74.23492187 87.99632813 -73.7940625 87.07078125 -73.33984375 86.1171875 C-71.1577731 83.23849336 -69.47152929 82.88798339 -65.98828125 82.109375 C-64.49748047 81.75939453 -64.49748047 81.75939453 -62.9765625 81.40234375 C-62.21730469 81.24378906 -61.45804687 81.08523437 -60.67578125 80.921875 C-63.31578125 80.921875 -65.95578125 80.921875 -68.67578125 80.921875 C-67.21379712 76.64596443 -65.04498308 73.49571925 -62.30078125 69.921875 C-61.52992187 68.91125 -60.7590625 67.900625 -59.96484375 66.859375 C-59.20945312 65.89 -58.4540625 64.920625 -57.67578125 63.921875 C-56.96679688 63.01050781 -56.2578125 62.09914063 -55.52734375 61.16015625 C-53.73963445 58.99906463 -51.98778923 57.49073756 -49.67578125 55.921875 C-52.12058204 56.11016272 -52.12058204 56.11016272 -54.67578125 56.921875 C-55.34358922 58.25463707 -56.01007261 59.58806308 -56.67578125 60.921875 C-58.55078125 62.73828125 -58.55078125 62.73828125 -60.67578125 64.484375 C-63.23350588 66.59543816 -64.80891625 68.12157751 -66.67578125 70.921875 C-67.33578125 70.921875 -67.99578125 70.921875 -68.67578125 70.921875 C-69.00578125 69.601875 -69.33578125 68.281875 -69.67578125 66.921875 C-69.69640625 68.18 -69.71703125 69.438125 -69.73828125 70.734375 C-70.33552693 76.02777161 -72.61529941 79.24861507 -75.578125 83.57421875 C-78.15816163 87.69170737 -80.19518097 91.95679561 -82.23828125 96.359375 C-82.62145508 97.17970215 -83.00462891 98.0000293 -83.39941406 98.84521484 C-84.80297338 101.85980048 -86.19929522 104.87751854 -87.57958984 107.90283203 C-88.34885652 109.58176905 -89.13659507 111.2522086 -89.92578125 112.921875 C-90.55226563 114.283125 -90.55226563 114.283125 -91.19140625 115.671875 C-93.00527028 118.421311 -94.7058875 119.54117556 -97.67578125 120.921875 C-104.87055573 119.96257174 -110.36653969 113.78033453 -114.73828125 108.359375 C-126.05343351 92.34503383 -129.72845206 74.82545065 -127.2421875 55.5625 C-123.0765752 36.00223354 -108.01025754 19.62340612 -91.828125 8.67138672 C-81.74970033 2.19646451 -71.11758782 -1.70120292 -59.67578125 -5.078125 C-78.63424809 -1.62858148 -92.76707015 5.61164545 -106.67578125 18.921875 C-107.59810547 19.74945313 -107.59810547 19.74945313 -108.5390625 20.59375 C-117.51977969 28.93446205 -123.61235546 39.90147768 -128.67578125 50.921875 C-129.00578125 50.921875 -129.33578125 50.921875 -129.67578125 50.921875 C-129.90858598 45.63583817 -129.17817372 41.16660106 -127.55078125 36.171875 C-127.32559814 35.47304199 -127.10041504 34.77420898 -126.8684082 34.05419922 C-123.37198688 23.6236684 -117.90604748 15.17320937 -110.67578125 6.921875 C-110.0828125 6.23351562 -109.48984375 5.54515625 -108.87890625 4.8359375 C-100.28419697 -4.45663279 -88.5887729 -11.05985401 -76.67578125 -15.078125 C-75.27585937 -15.55572266 -75.27585937 -15.55572266 -73.84765625 -16.04296875 C-47.87247706 -23.42073562 -20.9367077 -16.14849204 0 0 Z " fill="#4AAF46" transform="translate(129.67578125,18.078125)"/>
<path d="M0 0 C3.63 0 7.26 0 11 0 C11 6.27 11 12.54 11 19 C14.3 19 17.6 19 21 19 C21.495 22.96 21.495 22.96 22 27 C22.5775 26.071875 23.155 25.14375 23.75 24.1875 C26.50610134 20.28302311 28.49472629 18.5017579 33 17 C39.05255836 16.40661193 42.94020279 17.92709876 48 21 C49 22 49 22 49.11352539 23.76586914 C49.10567017 24.88916626 49.10567017 24.88916626 49.09765625 26.03515625 C49.09282227 27.24848633 49.09282227 27.24848633 49.08789062 28.48632812 C49.07532227 29.7615332 49.07532227 29.7615332 49.0625 31.0625 C49.05798828 31.91650391 49.05347656 32.77050781 49.04882812 33.65039062 C49.03700373 35.76695663 49.01906769 37.88348685 49 40 C48.01 40 47.02 40 46 40 C45.236875 39.195625 44.47375 38.39125 43.6875 37.5625 C40.65470024 34.6707607 39.12096585 34.18315404 35 34 C34.01 34.495 34.01 34.495 33 35 C33 37.31 33 39.62 33 42 C33.81984375 42.36351562 34.6396875 42.72703125 35.484375 43.1015625 C46.25993884 48.12844037 46.25993884 48.12844037 49 54 C51.59599264 61.78797793 51.49059805 73.77345788 48.375 81.375 C45.73541093 86.09056482 42.17211903 89.27596032 37 91 C31.70601018 91.42351919 27.92492059 90.46080181 23.11328125 88.4609375 C20.36201411 87.86084596 19.41778963 88.66410067 17 90 C12.6207226 90.67373498 9.07687685 90.56184879 5.125 88.5 C-0.13609336 82.3104784 -0.42645425 75.56516437 -0.29296875 67.8125 C-0.28872391 66.86938965 -0.28447906 65.9262793 -0.28010559 64.95458984 C-0.2634357 61.96942482 -0.22580575 58.98495782 -0.1875 56 C-0.17243804 53.96485356 -0.15875229 51.92969645 -0.14648438 49.89453125 C-0.11357055 44.9294223 -0.06186999 39.96482913 0 35 C-1.32 35 -2.64 35 -4 35 C-4 36.65 -4 38.3 -4 40 C-4.99 40 -5.98 40 -7 40 C-7.763125 39.195625 -8.52625 38.39125 -9.3125 37.5625 C-12.34529976 34.6707607 -13.87903415 34.18315404 -18 34 C-18.99 34.495 -18.99 34.495 -20 35 C-20 37.31 -20 39.62 -20 42 C-19.18015625 42.36351562 -18.3603125 42.72703125 -17.515625 43.1015625 C-6.74006116 48.12844037 -6.74006116 48.12844037 -4 54 C-1.40400736 61.78797793 -1.50940195 73.77345788 -4.625 81.375 C-7.26458907 86.09056482 -10.82788097 89.27596032 -16 91 C-21.59275732 91.43864763 -26.02963804 90.49089404 -31 88 C-33 86 -33 86 -33.22705078 83.93701172 C-33.21134033 82.69588623 -33.21134033 82.69588623 -33.1953125 81.4296875 C-33.18886719 80.53378906 -33.18242187 79.63789062 -33.17578125 78.71484375 C-33.15902344 77.77769531 -33.14226562 76.84054688 -33.125 75.875 C-33.11597656 74.93011719 -33.10695313 73.98523438 -33.09765625 73.01171875 C-33.07404522 70.67422708 -33.04111516 68.33723877 -33 66 C-32.34 66 -31.68 66 -31 66 C-30.236875 66.94875 -29.47375 67.8975 -28.6875 68.875 C-26.39582723 71.7177495 -24.66435977 73.17551905 -21 74 C-18.2663568 73.70480232 -18.2663568 73.70480232 -16 73 C-15.67 70.69 -15.34 68.38 -15 66 C-15.825 65.773125 -16.65 65.54625 -17.5 65.3125 C-23.28166781 63.14437457 -28.43117391 60.87618116 -31.5 55.25 C-34.66852697 46.80530981 -34.38582596 35.68790301 -31.375 27.25 C-29.32745299 22.97273987 -26.94199763 20.60004099 -23 18 C-18.74602614 16.58200871 -15.01750291 16.19229342 -10.765625 17.89453125 C-8.80770438 18.87696305 -6.89317936 19.89851383 -5 21 C-4.67 20.34 -4.34 19.68 -4 19 C-2.68 19 -1.36 19 0 19 C0 12.73 0 6.46 0 0 Z M11 35 C10.92564778 39.75053511 10.87130309 44.50072887 10.83520508 49.25170898 C10.82015124 50.86667789 10.79970352 52.48160613 10.77368164 54.09643555 C10.73714714 56.42246555 10.72023985 58.74795341 10.70703125 61.07421875 C10.69154739 61.79212082 10.67606354 62.51002289 10.66011047 63.24967957 C10.65863019 67.69410841 11.35174855 70.41707157 14 74 C16.16874252 73.49396008 17.99967627 73.00016187 20 72 C20 70.02 20 68.04 20 66 C20.66 66 21.32 66 22 66 C22.3403125 66.86625 22.3403125 66.86625 22.6875 67.75 C24.98174771 71.68299607 27.76756858 73.59757342 32.0625 75 C35.08089378 75.27157197 35.08089378 75.27157197 37.4375 73.375 C39.22551227 71.1333351 39.22551227 71.1333351 38.9921875 68.5546875 C38.1924854 65.72805498 38.1924854 65.72805498 35.19921875 64.296875 C34.04035156 63.78640625 32.88148438 63.2759375 31.6875 62.75 C24.29647353 59.10839214 24.29647353 59.10839214 22.25 55 C20.13134108 48.65505792 20.17472791 41.63092416 20 35 C17.03 35 14.06 35 11 35 Z " fill="#4BAF47" transform="translate(510,33)"/>
<path d="M0 0 C3.63 0 7.26 0 11 0 C11.33 9.57 11.66 19.14 12 29 C14.97 26.525 14.97 26.525 18 24 C20.96619267 23.29197571 23.21236961 23.80201008 26 25 C35.59104585 34.37791149 34.59199068 50.46426531 35 63 C35.43699219 62.06671875 35.87398438 61.1334375 36.32421875 60.171875 C38.83473537 55.42003469 42.10269577 52.8300706 47 50.6875 C50.10434 49.97608875 52.82623738 49.84886845 56 50 C55.01 47.36 54.02 44.72 53 42 C48.6497898 40.9346424 46.01891909 40.64347807 42.1875 42.9375 C41.135625 43.618125 40.08375 44.29875 39 45 C38.34 45 37.68 45 37 45 C37 39.06 37 33.12 37 27 C44.96146077 24.01445221 50.34208051 22.3611024 58.375 25.1875 C63.21460532 28.52913224 65.25778046 31.79106978 66.60296631 37.51269531 C67.42329184 42.6518046 67.24057883 47.84076958 67.1953125 53.03125 C67.1924826 54.26290894 67.18965271 55.49456787 67.18673706 56.7635498 C67.17559202 60.67580102 67.15049749 64.58781862 67.125 68.5 C67.11382966 71.16145498 67.10583833 73.82290777 67.09765625 76.484375 C67.0756712 82.98967258 67.04118019 89.49479675 67 96 C63.37 96 59.74 96 56 96 C55.67 94.68 55.34 93.36 55 92 C54.360625 92.825 53.72125 93.65 53.0625 94.5 C49.43968521 97.45739983 47.6825468 97.58609104 43.18359375 97.6640625 C39.87423361 96.65763813 38.85170063 94.86877728 37 92 C35.734375 88.66796875 35.734375 88.66796875 34.75 85.1875 C34.41484375 84.02605469 34.0796875 82.86460938 33.734375 81.66796875 C33.49203125 80.78753906 33.2496875 79.90710938 33 79 C32.76925781 79.72445312 32.53851563 80.44890625 32.30078125 81.1953125 C27.97754611 94.01122694 27.97754611 94.01122694 22 97 C16.97381517 97.3793347 14.10111964 96.98263247 10 94 C10 94.66 10 95.32 10 96 C6.7 96 3.4 96 0 96 C0 64.32 0 32.64 0 0 Z M11 45 C10.64400922 47.78572354 10.53289196 50.17036591 10.609375 52.94921875 C10.61503479 53.72183548 10.62069458 54.49445221 10.62652588 55.29048157 C10.64890673 57.75678629 10.69910297 60.22163492 10.75 62.6875 C10.77006294 64.36000505 10.78831408 66.03253289 10.8046875 67.70507812 C10.84877669 71.80394596 10.91781325 75.90172617 11 80 C13.36301224 80.70107795 13.36301224 80.70107795 16 81 C19.41438967 78.28400822 21.25991178 76.27638904 22 72 C22.24712316 68.211527 22.23111575 64.42073328 22.25 60.625 C22.270625 59.59632812 22.29125 58.56765625 22.3125 57.5078125 C22.34116829 51.94616377 22.25995289 47.75112355 19 43 C15.48539015 41.07263331 13.63106119 42.23372585 11 45 Z M47 67 C44.67119819 70.21596441 44.6757321 73.10878524 45 77 C45.89831016 79.30230766 45.89831016 79.30230766 47 81 C50.43230448 80.73606499 50.43230448 80.73606499 54 80 C56.42130331 76.36804504 56.21022785 74.61650652 56.125 70.3125 C56.09792969 68.54326172 56.09792969 68.54326172 56.0703125 66.73828125 C56.04710937 65.83464844 56.02390625 64.93101563 56 64 C51.67409946 64 50.39415013 64.49904727 47 67 Z " fill="#FFFFFF" transform="translate(262,26)"/>
<path d="M0 0 C5.11113801 2.45727789 7.87479428 5.81423966 10 11 C12.06291679 17.66737376 12.249346 24.1348874 12.125 31.0625 C12.08375 34.341875 12.0425 37.62125 12 41 C4.41 41 -3.18 41 -11 41 C-10.5875 42.918125 -10.175 44.83625 -9.75 46.8125 C-9.40195312 48.43091797 -9.40195312 48.43091797 -9.046875 50.08203125 C-7.87492826 53.34861415 -6.99808891 54.34256594 -4 56 C-0.9461553 56.53110343 1.00746545 56.62177339 3.68359375 54.9453125 C5.88799128 53.15853464 7.72002097 51.55995806 9 49 C9.99 49 10.98 49 12 49 C12.14554346 52.08283443 12.23413821 55.16478439 12.3125 58.25 C12.35439453 59.12269531 12.39628906 59.99539062 12.43945312 60.89453125 C12.56331303 67.38479046 12.56331303 67.38479046 9.66796875 70.546875 C5.67086507 72.72392122 2.6235206 73.18269046 -1.875 73.25 C-2.90367187 73.27578125 -3.93234375 73.3015625 -4.9921875 73.328125 C-9.63394728 72.82175121 -12.20156938 70.74000887 -15.5625 67.625 C-24.84625659 55.31520882 -22.40432341 38.47322282 -22 24 C-23.45880109 24.14107747 -24.91703551 24.28802415 -26.375 24.4375 C-27.18710937 24.51871094 -27.99921875 24.59992188 -28.8359375 24.68359375 C-31.04272805 24.89090114 -31.04272805 24.89090114 -33 26 C-33.33 41.18 -33.66 56.36 -34 72 C-37.63 72 -41.26 72 -45 72 C-45 48.9 -45 25.8 -45 2 C-41.37 2 -37.74 2 -34 2 C-33.67 3.98 -33.34 5.96 -33 8 C-32.55269531 7.566875 -32.10539062 7.13375 -31.64453125 6.6875 C-31.03996094 6.130625 -30.43539063 5.57375 -29.8125 5 C-29.22082031 4.443125 -28.62914062 3.88625 -28.01953125 3.3125 C-26 2 -26 2 -21 2 C-20.67 5.96 -20.34 9.92 -20 14 C-19.278125 12.5975 -18.55625 11.195 -17.8125 9.75 C-13.66490541 2.25605068 -8.66876872 -1.13211532 0 0 Z M-8.6875 16.4375 C-10.63239414 20.23467427 -10.68791152 23.75559662 -11 28 C-7.04 28 -3.08 28 1 28 C0.896875 26.411875 0.79375 24.82375 0.6875 23.1875 C0.62949219 22.29417969 0.57148438 21.40085937 0.51171875 20.48046875 C-0.07532925 17.63485441 -0.6185653 16.6403017 -3 15 C-6.86196593 14.56768903 -6.86196593 14.56768903 -8.6875 16.4375 Z " fill="#4BAF47" transform="translate(464,50)"/>
<path d="M0 0 C1.0725 0.5775 2.145 1.155 3.25 1.75 C4.13558594 2.20375 5.02117187 2.6575 5.93359375 3.125 C9.69045958 7.38235891 8.7776643 12.03813695 8.5625 17.5 C8.53994141 18.57894531 8.51738281 19.65789063 8.49414062 20.76953125 C8.4352565 23.4310935 8.35307001 26.08984228 8.25 28.75 C4.86351415 27.17467701 3.16815553 25.6535298 0.875 22.6875 C-1.40074299 20.02842291 -2.54141843 18.8393921 -5.8125 17.4375 C-9.11782529 17.78913035 -11.00188549 18.7457183 -13.4296875 21.02734375 C-20.90768889 30.78414438 -19.58624561 47.30286082 -18.44140625 58.8671875 C-17.50773371 64.17176955 -15.82746654 69.28165 -12.75 73.75 C-9.49922159 76.2135601 -9.49922159 76.2135601 -3.75 76.75 C-3.75 71.14 -3.75 65.53 -3.75 59.75 C-6.39 59.75 -9.03 59.75 -11.75 59.75 C-11.75 53.81 -11.75 47.87 -11.75 41.75 C-5.15 41.75 1.45 41.75 8.25 41.75 C8.4108413 48.21173522 8.55012152 54.66651863 8.63452148 61.12866211 C8.669701 63.32584166 8.71745371 65.52285762 8.77807617 67.71948242 C8.86310406 70.87980483 8.90271323 74.03796042 8.93359375 77.19921875 C8.96972275 78.17960617 9.00585175 79.15999359 9.04307556 80.17008972 C9.04690458 86.83700214 9.04690458 86.83700214 6.7505188 89.46792603 C1.08643148 93.61728053 -4.71392596 95.36719948 -11.75 94.75 C-18.25907297 92.89026487 -21.9568504 89.30762466 -25.75 83.75 C-31.45904322 72.88154195 -32.12324811 61.33174601 -32.12060547 49.29321289 C-32.12495892 47.08335046 -32.16133162 44.87552419 -32.19921875 42.66601562 C-32.29745098 30.08720313 -30.99041135 14.25476714 -21.82421875 4.75390625 C-15.03378915 -1.41582594 -8.8429814 -2.94766047 0 0 Z " fill="#FFFFFF" transform="translate(196.75,29.25)"/>
<path d="M0 0 C5.92820125 3.81678711 8.36389877 11.55048135 9.91772461 18.11279297 C10.81188981 23.80293518 10.68182481 29.56637196 10.6875 35.3125 C10.71199219 36.59833984 10.73648438 37.88417969 10.76171875 39.20898438 C10.79340926 49.66157005 9.58435233 61.49763563 2.3125 69.625 C-2.20663709 72.70622983 -6.35921376 73.51304771 -11.6875 72.625 C-17.66269378 70.23492249 -19.84873951 65.54458096 -22.4296875 59.95703125 C-28.2063904 44.65415058 -27.48256867 24.08877779 -21.5859375 8.76171875 C-16.87902942 -0.51544525 -9.79114134 -3.65093406 0 0 Z M-8.6875 14.625 C-13.92688169 21.29330396 -13.88612965 27.81456402 -13.9375 35.9375 C-13.958125 36.74123047 -13.97875 37.54496094 -14 38.37304688 C-14.03624143 44.00405965 -13.52442542 49.64169897 -10.6875 54.625 C-8.66744816 55.89886768 -8.66744816 55.89886768 -6.6875 56.625 C-2.55692122 53.5959089 -1.79574664 50.41867161 -1 45.6015625 C-0.02981201 36.36052192 1.26184946 23.80852117 -4.6875 16 C-6.55767048 14.43615706 -6.55767048 14.43615706 -8.6875 14.625 Z " fill="#FFFFFF" transform="translate(248.6875,51.375)"/>
<path d="M0 0 C9.83025263 9.40285034 10.87308519 22.69664599 11.1875 35.5625 C11.13484877 46.72591067 10.10997632 59.76794133 2.875 68.75 C-0.56372466 71.88306025 -2.44358438 72.66347103 -7.0625 73.25 C-11.39304773 72.96901026 -14.95489339 71.76546727 -18.125 68.75 C-24.96229942 58.51213896 -25.48819167 48.01843463 -25.5 36.0625 C-25.52449219 34.77666016 -25.54898437 33.49082031 -25.57421875 32.16601562 C-25.60590926 21.71342995 -24.39685233 9.87736437 -17.125 1.75 C-11.50951939 -2.07873678 -6.20916713 -2.48366685 0 0 Z M-10.125 16.125 C-16.07434946 23.93352117 -14.78268799 36.48552192 -13.8125 45.7265625 C-13.01675336 50.54367161 -12.25557878 53.7209089 -8.125 56.75 C-5.70356506 55.79223796 -4.39429311 55.22518208 -3.08911133 52.92211914 C-1.29315826 47.23503965 -0.69186397 42.13726886 -0.8125 36.1875 C-0.80927734 35.38892578 -0.80605469 34.59035156 -0.80273438 33.76757812 C-0.86181516 27.17738502 -1.21051658 19.66448342 -6.125 14.75 C-8.25482952 14.56115706 -8.25482952 14.56115706 -10.125 16.125 Z " fill="#4BAF47" transform="translate(406.125,51.25)"/>
<path d="M0 0 C10.23 0 20.46 0 31 0 C31 5.94 31 11.88 31 18 C24.73 18 18.46 18 12 18 C12 23.28 12 28.56 12 34 C17.61 34 23.22 34 29 34 C29 40.27 29 46.54 29 53 C23.39 53 17.78 53 12 53 C12 65.87 12 78.74 12 92 C8.04 92 4.08 92 0 92 C0 61.64 0 31.28 0 0 Z " fill="#4BAF47" transform="translate(350,30)"/>
<path d="M0 0 C3.63 0 7.26 0 11 0 C11 31.68 11 63.36 11 96 C7.37 96 3.74 96 0 96 C0 64.32 0 32.64 0 0 Z " fill="#FFFFFF" transform="translate(333,26)"/>
<path d="M0 0 C3.63 0 7.26 0 11 0 C11 31.68 11 63.36 11 96 C7.37 96 3.74 96 0 96 C0 64.32 0 32.64 0 0 Z " fill="#FFFFFF" transform="translate(210,26)"/>
</svg>
