<?xml version="1.0" encoding="UTF-8"?>
<svg version="1.1" xmlns="http://www.w3.org/2000/svg" width="184" height="50">
<path d="M0 0 C0.90789276 -0.00953201 1.81578552 -0.01906403 2.75119019 -0.02888489 C3.73451324 -0.02797348 4.7178363 -0.02706207 5.73095703 -0.02612305 C6.73965851 -0.03040817 7.74835999 -0.0346933 8.78762817 -0.03910828 C10.92449187 -0.04485892 13.06137514 -0.04534646 15.19824219 -0.04101562 C18.46860218 -0.03786125 21.7380531 -0.06128669 25.00830078 -0.08666992 C27.08251839 -0.08894338 29.15673843 -0.08964619 31.23095703 -0.08862305 C32.21023163 -0.09783279 33.18950623 -0.10704254 34.19845581 -0.11653137 C35.11265289 -0.11030258 36.02684998 -0.10407379 36.96875 -0.09765625 C37.7710202 -0.09828568 38.57329041 -0.0989151 39.39987183 -0.0995636 C42.13198836 0.36225429 43.45852483 1.58866362 45.61376953 3.2746582 C48.34921769 3.20057566 48.34921769 3.20057566 51.23876953 2.4621582 C57.31808483 1.25818622 63.67405638 0.22549546 69.77001953 1.84887695 C71.69480705 2.49955641 71.69480705 2.49955641 73.61376953 1.2746582 C75.42220616 1.12749278 77.23708519 1.05356951 79.05126953 1.0246582 C80.50339844 0.98598633 80.50339844 0.98598633 81.98486328 0.9465332 C84.61376953 1.2746582 84.61376953 1.2746582 86.44970703 2.62231445 C88.04379069 4.88505737 87.8327427 6.57398918 87.61376953 9.2746582 C89.26376953 9.2746582 90.91376953 9.2746582 92.61376953 9.2746582 C92.90251953 8.1402832 93.19126953 7.0059082 93.48876953 5.8371582 C94.04564453 4.0737207 94.04564453 4.0737207 94.61376953 2.2746582 C101.4645968 -1.15075543 113.55492311 1.33061655 120.61376953 3.2746582 C122.61376953 6.2746582 122.61376953 6.2746582 122.61376953 9.2746582 C131.52376953 9.2746582 140.43376953 9.2746582 149.61376953 9.2746582 C150.27376953 7.6246582 150.93376953 5.9746582 151.61376953 4.2746582 C156.0898916 2.78261751 160.58029744 2.59683417 165.05126953 4.0871582 C166.61376953 5.2746582 166.61376953 5.2746582 167.61376953 8.2746582 C169.68762805 9.04387105 169.68762805 9.04387105 172.11376953 9.3996582 C176.53654945 10.19743813 176.53654945 10.19743813 177.61376953 11.2746582 C177.70220746 13.72296247 177.72905705 16.14286419 177.71142578 18.59106445 C177.70930336 19.68764626 177.70930336 19.68764626 177.70713806 20.80638123 C177.70152361 23.15001453 177.68896875 25.4935536 177.67626953 27.8371582 C177.67125639 29.42244329 177.66669316 31.00772986 177.66259766 32.59301758 C177.6515495 36.4869343 177.63427525 40.38078026 177.61376953 44.2746582 C172.2375493 47.6077227 167.86949854 47.69273981 161.75073242 47.63110352 C160.77242966 47.63314789 159.79412689 47.63519226 158.78617859 47.63729858 C155.55273697 47.64030444 152.31980693 47.62181213 149.08642578 47.6027832 C146.81839626 47.5997208 144.55036484 47.59784834 142.28233337 47.59710693 C137.5184716 47.59250257 132.75477871 47.57808777 127.9909668 47.5559082 C121.95117502 47.52790003 115.91151744 47.51672321 109.87166691 47.5122261 C104.04740332 47.50700335 98.22317168 47.49250189 92.39892578 47.4777832 C91.3177202 47.47590248 90.23651463 47.47402176 89.12254524 47.47208405 C85.97382316 47.46502073 82.825201 47.45204322 79.67651367 47.43579102 C78.67853288 47.43192005 77.68055208 47.42804909 76.65232944 47.42406082 C71.44226865 47.3827203 66.26334731 47.2212117 61.06271362 46.89807129 C60.00362761 46.83518291 58.94454161 46.77229454 57.85336208 46.70750046 C55.83206593 46.58005179 53.81180082 46.43457954 51.79331303 46.26848221 C50.89350932 46.21144497 49.99370562 46.15440773 49.06663513 46.09564209 C48.27652259 46.03409313 47.48641005 45.97254417 46.6723547 45.9091301 C44.4139123 46.08183403 44.4139123 46.08183403 42.96631813 48.25494194 C42.29680657 49.25470149 42.29680657 49.25470149 41.61376953 50.2746582 C39.52012634 50.76913452 39.52012634 50.76913452 37.08227539 50.76049805 C36.16800278 50.76665131 35.25373016 50.77280457 34.31175232 50.77914429 C33.32731644 50.76477325 32.34288055 50.75040222 31.32861328 50.7355957 C30.3165834 50.73467926 29.30455353 50.73376282 28.26185608 50.7328186 C26.12252105 50.7267759 23.98319475 50.71100994 21.84399414 50.6862793 C18.56055716 50.6497615 15.27824775 50.64525991 11.99462891 50.64575195 C9.91844723 50.63592158 7.84227323 50.62426492 5.76611328 50.6105957 C4.77965317 50.60837006 3.79319305 50.60614441 2.77684021 50.60385132 C1.86571976 50.59109161 0.9545993 50.57833191 0.01586914 50.56518555 C-0.78782608 50.55756195 -1.5915213 50.54993835 -2.41957092 50.54208374 C-4.38623047 50.2746582 -4.38623047 50.2746582 -6.38623047 48.2746582 C-6.64019775 46.30126953 -6.64019775 46.30126953 -6.64501953 43.85668945 C-6.65132385 42.94234131 -6.65762817 42.02799316 -6.66412354 41.0859375 C-6.66007507 40.09634033 -6.65602661 39.10674316 -6.65185547 38.0871582 C-6.65376892 37.07371338 -6.65568237 36.06026855 -6.65765381 35.01611328 C-6.65901638 32.87084709 -6.65531494 30.72557267 -6.64697266 28.58032227 C-6.63627429 25.28814248 -6.64686566 21.99650842 -6.65966797 18.7043457 C-6.65834639 16.62361533 -6.65578402 14.54288529 -6.65185547 12.4621582 C-6.65590393 11.47256104 -6.65995239 10.48296387 -6.66412354 9.46337891 C-6.65781921 8.54903076 -6.65151489 7.63468262 -6.64501953 6.69262695 C-6.64342834 5.88591553 -6.64183716 5.0792041 -6.64019775 4.24804688 C-6.10463163 0.08656549 -3.58204699 0.02061237 0 0 Z " fill="#030403" transform="translate(6.38623046875,-0.274658203125)"/>
<path d="M0 0 C1.57043101 0.01330874 3.14079971 0.03717648 4.7109375 0.0703125 C5.51273438 0.07933594 6.31453125 0.08835938 7.140625 0.09765625 C9.12252273 0.12125027 11.10426731 0.15712185 13.0859375 0.1953125 C11.41543629 1.30897997 9.73066554 2.40421773 8 3.421875 C2.34262608 6.87808637 -0.92453666 10.2763518 -3.9140625 16.1953125 C-3.2746875 15.4940625 -2.6353125 14.7928125 -1.9765625 14.0703125 C3.03334346 9.08887191 8.82798187 4.56751535 16.0859375 4.1953125 C13.90268509 6.37856491 12.14185624 7.13715464 9.3359375 8.3828125 C3.09917621 11.42909186 -1.25657099 15.71917329 -3.9140625 22.1953125 C-4.89867683 29.56847097 -3.85770311 34.9318833 0.0859375 41.1953125 C0.7459375 41.5253125 1.4059375 41.8553125 2.0859375 42.1953125 C1.4465625 41.4321875 0.8071875 40.6690625 0.1484375 39.8828125 C-2.70845914 36.1601896 -3.34026419 33.05393267 -3.24609375 28.37109375 C-2.04218621 20.48195845 5.02954755 14.69776029 11.0859375 10.1953125 C17.82573368 5.78471059 25.17096499 4.91870403 33.0859375 6.1953125 C35.58698846 7.63034174 36.42425352 8.76213239 38.0859375 11.1953125 C38.5809375 11.6903125 38.5809375 11.6903125 39.0859375 12.1953125 C40.15857984 21.88426214 37.79667452 29.54050767 32.3359375 37.5078125 C26.27877997 44.98485234 19.42115043 47.0455712 10.0859375 48.1953125 C11.0759375 48.8553125 12.0659375 49.5153125 13.0859375 50.1953125 C10.29401545 50.24911828 7.5031234 50.28888919 4.7109375 50.3203125 C3.916875 50.33707031 3.1228125 50.35382812 2.3046875 50.37109375 C0.23101735 50.38866723 -1.84289491 50.29866418 -3.9140625 50.1953125 C-6.35534919 47.75402581 -6.1662495 47.12450436 -6.17285156 43.77734375 C-6.17915588 42.86299561 -6.18546021 41.94864746 -6.19195557 41.0065918 C-6.1879071 40.01699463 -6.18385864 39.02739746 -6.1796875 38.0078125 C-6.18160095 36.99436768 -6.1835144 35.98092285 -6.18548584 34.93676758 C-6.18684841 32.79150138 -6.18314697 30.64622697 -6.17480469 28.50097656 C-6.16410632 25.20879678 -6.17469769 21.91716272 -6.1875 18.625 C-6.18617842 16.54426962 -6.18361605 14.46353959 -6.1796875 12.3828125 C-6.18373596 11.39321533 -6.18778442 10.40361816 -6.19195557 9.3840332 C-6.18565125 8.46968506 -6.17934692 7.55533691 -6.17285156 6.61328125 C-6.17126038 5.80656982 -6.16966919 4.9998584 -6.16802979 4.16870117 C-5.64539141 0.10767163 -3.81044015 0.19014172 0 0 Z " fill="#030803" transform="translate(5.9140625,-0.1953125)"/>
<path d="M0 0 C1.32 0 2.64 0 4 0 C4 2.31 4 4.62 4 7 C4.69867188 6.91621094 5.39734375 6.83242188 6.1171875 6.74609375 C7.02726562 6.64425781 7.93734375 6.54242187 8.875 6.4375 C9.77992188 6.33308594 10.68484375 6.22867187 11.6171875 6.12109375 C14 6 14 6 16 7 C16 8.98 16 10.96 16 13 C14.02 12.34 12.04 11.68 10 11 C10.495 12.485 10.495 12.485 11 14 C12.2684375 14.556875 12.2684375 14.556875 13.5625 15.125 C16 17 16 17 16.3984375 19.0859375 C16.46681428 23.3116222 16.40543502 25.39184746 14 29 C11.25 29.36328125 11.25 29.36328125 8 29.3125 C6.39125 29.30669922 6.39125 29.30669922 4.75 29.30078125 C2 29 2 29 0 27 C-0.30059943 24.63490639 -0.49515012 22.25558119 -0.625 19.875 C-0.69976562 18.59367187 -0.77453125 17.31234375 -0.8515625 15.9921875 C-0.90054688 15.00476562 -0.94953125 14.01734375 -1 13 C-2.98 12.34 -4.96 11.68 -7 11 C-6.67 11.99 -6.34 12.98 -6 14 C-5.154375 14.37125 -4.30875 14.7425 -3.4375 15.125 C-1 17 -1 17 -0.6015625 19.0859375 C-0.53318572 23.3116222 -0.59456498 25.39184746 -3 29 C-5.58238298 29.33214891 -7.85750482 29.46419797 -10.4375 29.4375 C-11.4594043 29.4674707 -11.4594043 29.4674707 -12.50195312 29.49804688 C-15.66331676 29.49495053 -17.52426508 29.41830213 -19.94140625 27.29296875 C-21.49069643 23.93712617 -21.46389328 20.88899705 -21.59375 17.2421875 C-21.79484375 16.13230469 -21.79484375 16.13230469 -22 15 C-22.99 14.34 -23.98 13.68 -25 13 C-25 18.28 -25 23.56 -25 29 C-26.32 29 -27.64 29 -29 29 C-29 21.74 -29 14.48 -29 7 C-25.66666667 7 -22.33333333 7 -19 7 C-18.21625 6.773125 -17.4325 6.54625 -16.625 6.3125 C-14 6 -14 6 -11.6875 7.4375 C-11.130625 7.953125 -10.57375 8.46875 -10 9 C-9.4740625 8.2265625 -9.4740625 8.2265625 -8.9375 7.4375 C-7 6 -7 6 -3.3125 6.3125 C-2.219375 6.539375 -1.12625 6.76625 0 7 C0 4.69 0 2.38 0 0 Z " fill="#429C3F" transform="translate(163,10)"/>
<path d="M0 0 C0.33 0 0.66 0 1 0 C1.31859985 9.8765952 0.14446603 19.35517564 -5 28 C-7.5 30.4375 -7.5 30.4375 -10 32 C-10.61875 32.4125 -11.2375 32.825 -11.875 33.25 C-14.96656786 34.3411416 -17.75299079 34.1803894 -21 34 C-21.66 33.67 -22.32 33.34 -23 33 C-21.94124926 29.59687262 -20.99097846 26.98646769 -19 24 C-18.01 23.67 -17.02 23.34 -16 23 C-16.66 22.34 -17.32 21.68 -18 21 C-17.67 20.34 -17.34 19.68 -17 19 C-17.66 19 -18.32 19 -19 19 C-19.41378906 20.07314453 -19.41378906 20.07314453 -19.8359375 21.16796875 C-20.98248522 23.95738855 -22.26227115 26.62290358 -23.625 29.3125 C-24.29402344 30.63701172 -24.29402344 30.63701172 -24.9765625 31.98828125 C-25.31429688 32.65214844 -25.65203125 33.31601562 -26 34 C-26.33 34 -26.66 34 -27 34 C-28.16014652 27.64316408 -28.83127324 21.44026845 -28 15 C-23.74024789 9.32033053 -16.45463299 7.53397996 -10 5 C-8.2659275 4.26141356 -6.53610989 3.51268361 -4.8125 2.75 C-4.09707031 2.43546875 -3.38164063 2.1209375 -2.64453125 1.796875 C-1.00325226 1.11258324 -1.00325226 1.11258324 0 0 Z " fill="#47A543" transform="translate(38,9)"/>
<path d="M0 0 C5.23996601 3.35764812 8.24609265 6.91290979 10 13 C11.39749103 20.99239255 8.1277114 27.77275258 5 35 C7.86034565 29.66068812 9.73130765 24.92056432 11 19 C11.66 19 12.32 19 13 19 C12.57712168 27.73948527 10.27608952 35.38560773 3.625 41.4375 C-3.48783635 46.81401227 -10.23707134 47.91927181 -19 47 C-21.8671875 45.98046875 -21.8671875 45.98046875 -24 45 C-24 44.67 -24 44.34 -24 44 C-23.16597656 43.92523438 -22.33195312 43.85046875 -21.47265625 43.7734375 C-12.73618518 42.75268143 -6.58772101 40.81825976 -0.4453125 34.3671875 C4.79713377 27.69780319 6.72818188 19.86012695 6.38671875 11.46484375 C6.10139299 8.77366663 6.10139299 8.77366663 4.3125 5.8125 C-1.06139949 2.87206443 -6.02768043 3.0636901 -12 4 C-21.0013061 7.05420661 -27.72994254 12.04217095 -32.9375 19.9375 C-34.50475006 24.45486781 -35.01350789 28.50597569 -33.203125 32.9609375 C-31.52735629 36.01599277 -29.66241768 38.73694497 -27 41 C-30.04261908 40.6740051 -30.9801219 40.02104739 -33.125 37.75 C-37.19147178 31.78584139 -38.09031501 26.09678253 -37 19 C-33.73275585 11.30035478 -27.48373312 6.05504434 -20 2.625 C-19.01 2.315625 -19.01 2.315625 -18 2 C-24.77557783 3.69389446 -30.60009242 7.53896809 -34.5 13.375 C-34.995 14.24125 -35.49 15.1075 -36 16 C-37 13 -37 13 -36.28515625 11.16796875 C-28.10036838 -2.08981863 -14.34546555 -7.0795804 0 0 Z " fill="#439D40" transform="translate(38,3)"/>
<path d="M0 0 C1.32 0 2.64 0 4 0 C4.33 3.96 4.66 7.92 5 12 C5.99 10.68 6.98 9.36 8 8 C12.75 8.75 12.75 8.75 15 11 C16.90882977 16.70201714 16.71861303 22.95195286 14.75 28.5625 C13 31 13 31 11 32.0625 C9 32 9 32 7.3125 30.6875 C6 29 6 29 5 27 C4.67 28.32 4.34 29.64 4 31 C2.68 31 1.36 31 0 31 C0 20.77 0 10.54 0 0 Z " fill="#ECECEC" transform="translate(67,8)"/>
<path d="M0 0 C2.5625 0.3125 2.5625 0.3125 4.375 1.375 C6.17092137 4.30518751 5.75227574 6.9597953 5.5625 10.3125 C5.170625 9.796875 4.77875 9.28125 4.375 8.75 C3.4778125 8.0384375 3.4778125 8.0384375 2.5625 7.3125 C-0.02757773 7.680415 -0.02757773 7.680415 -2.4375 8.3125 C-2.46442484 10.60410319 -2.48386124 12.89579546 -2.5 15.1875 C-2.51160156 16.46367187 -2.52320313 17.73984375 -2.53515625 19.0546875 C-2.66926569 22.19914652 -2.66926569 22.19914652 -1.4375 24.3125 C-0.4475 24.6425 0.5425 24.9725 1.5625 25.3125 C1.5625 23.3325 1.5625 21.3525 1.5625 19.3125 C0.5725 19.3125 -0.4175 19.3125 -1.4375 19.3125 C-1.4375 17.6625 -1.4375 16.0125 -1.4375 14.3125 C0.8725 14.3125 3.1825 14.3125 5.5625 14.3125 C5.64325665 16.60359597 5.70157731 18.89549267 5.75 21.1875 C5.78480469 22.46367187 5.81960937 23.73984375 5.85546875 25.0546875 C5.75878906 26.12976563 5.66210938 27.20484375 5.5625 28.3125 C2.09207297 30.62611802 0.64415827 30.82270728 -3.4375 30.3125 C-7.71154258 26.03845742 -7.64625522 21.16021307 -7.6875 15.4375 C-7.708125 14.72980469 -7.72875 14.02210937 -7.75 13.29296875 C-7.78389216 8.74294667 -7.19741053 5.94325608 -4.4375 2.3125 C-2.4375 0.3125 -2.4375 0.3125 0 0 Z " fill="#E6E6E6" transform="translate(60.4375,8.6875)"/>
<path d="M0 0 C0.99 0 1.98 0 3 0 C3.33 2.97 3.66 5.94 4 9 C5.32 8.67 6.64 8.34 8 8 C10.48216434 11.72324651 10.29625107 14.6322959 10.25 18.9375 C10.25773437 19.65357422 10.26546875 20.36964844 10.2734375 21.10742188 C10.25941611 24.88969269 10.10955794 27.79380678 8 31 C5.36 31 2.72 31 0 31 C0 20.77 0 10.54 0 0 Z " fill="#F7F7F7" transform="translate(84,8)"/>
<path d="M0 0 C2.5 0.875 2.5 0.875 3.63671875 3.01953125 C4.62103487 6.2753461 4.80068446 9.03856243 4.8125 12.4375 C4.82925781 13.55253906 4.84601563 14.66757812 4.86328125 15.81640625 C4.46730961 19.150232 3.8820153 20.54378597 1.5 22.875 C-1.1875 23.125 -1.1875 23.125 -3.5 22.875 C-7.03155185 17.43052423 -7.20533755 12.16807662 -6.5 5.875 C-5.60546875 3.09765625 -5.60546875 3.09765625 -4.5 0.875 C-2.5 -0.125 -2.5 -0.125 0 0 Z " fill="#46A342" transform="translate(128.5,16.125)"/>
<path d="M0 0 C3.5 0.3125 3.5 0.3125 7 1 C8.20029908 3.40059817 8.11459743 4.89360649 8.09765625 7.5703125 C8.09443359 8.46621094 8.09121094 9.36210937 8.08789062 10.28515625 C8.07951172 11.22230469 8.07113281 12.15945312 8.0625 13.125 C8.05798828 14.06988281 8.05347656 15.01476563 8.04882812 15.98828125 C8.03702357 18.32558387 8.02055759 20.66276061 8 23 C7.09507813 22.73896484 7.09507813 22.73896484 6.171875 22.47265625 C3.5180661 21.8951187 1.61032781 22.34741805 -1 23 C-2.90086774 19.19826452 -2.47533866 14.54485065 -1.25 10.5625 C0.3362233 8.57972087 1.52592708 8.32987639 4 8 C4 7.34 4 6.68 4 6 C2.35 6 0.7 6 -1 6 C-1.042721 4.33388095 -1.04063832 2.66617115 -1 1 C-0.67 0.67 -0.34 0.34 0 0 Z " fill="#F5F5F5" transform="translate(97,16)"/>
<path d="M0 0 C3.3 0 6.6 0 10 0 C10 1.98 10 3.96 10 6 C8.02 6 6.04 6 4 6 C4 7.65 4 9.3 4 11 C5.65 11 7.3 11 9 11 C9 12.98 9 14.96 9 17 C7.35 17 5.7 17 4 17 C4 20.96 4 24.92 4 29 C2.68 29 1.36 29 0 29 C0 19.43 0 9.86 0 0 Z " fill="#449F40" transform="translate(112,10)"/>
<path d="M0 0 C-1.47385025 2.94770051 -3.65392631 3.34203859 -6.625 4.6875 C-14.10919468 8.34505531 -20.17943282 12.87012989 -23 21 C-23.71904925 27.47144326 -22.66448836 30.66031697 -19 36 C-17.39827526 37.85859339 -17.39827526 37.85859339 -16 39 C-19.04261908 38.6740051 -19.9801219 38.02104739 -22.125 35.75 C-26.19147178 29.78584139 -27.09031501 24.09678253 -26 17 C-22.74342952 9.32550854 -16.61972737 4.4788781 -9.4375 0.625 C-6.24573117 -0.19340226 -3.27875733 -0.12857872 0 0 Z " fill="#47A543" transform="translate(27,5)"/>
<path d="M0 0 C1.32 0 2.64 0 4 0 C4.19891332 3.6661394 4.38204172 7.33290953 4.5625 11 C4.61857422 12.02996094 4.67464844 13.05992188 4.73242188 14.12109375 C5.00886345 19.90793748 4.92839894 25.27831174 4 31 C2.68 31 1.36 31 0 31 C0 20.77 0 10.54 0 0 Z " fill="#C6C6C6" transform="translate(67,8)"/>
<path d="M0 0 C2.31 0 4.62 0 7 0 C7 1.98 7 3.96 7 6 C6.01 6 5.02 6 4 6 C4 11.28 4 16.56 4 22 C2.68 22 1.36 22 0 22 C0 14.74 0 7.48 0 0 Z " fill="#3F943C" transform="translate(134,17)"/>
<path d="M0 0 C0.99 0 1.98 0 3 0 C3 10.23 3 20.46 3 31 C2.01 31 1.02 31 0 31 C0 20.77 0 10.54 0 0 Z " fill="#FAFAFA" transform="translate(107,8)"/>
<path d="M0 0 C5.50366792 -0.32374517 9.43672206 -0.53286034 14 3 C13.67 3.99 13.34 4.98 13 6 C10.03824877 5.38722388 8.61941217 4.74627478 6 3 C6 3.66 6 4.32 6 5 C4.35 5 2.7 5 1 5 C0.67 3.35 0.34 1.7 0 0 Z " fill="#040A04" transform="translate(145,29)"/>
<path d="M0 0 C0.66 0 1.32 0 2 0 C2.226875 1.27875 2.45375 2.5575 2.6875 3.875 C3.16100084 6.06932132 3.16100084 6.06932132 4 8 C6.48313064 9.59688639 6.48313064 9.59688639 9 10 C8.67 10.99 8.34 11.98 8 13 C4.125 12.125 4.125 12.125 3 11 C2.67 11.66 2.34 12.32 2 13 C1.34 13 0.68 13 0 13 C0 8.71 0 4.42 0 0 Z " fill="#050B04" transform="translate(167,22)"/>
<path d="M0 0 C0.66 0 1.32 0 2 0 C1.65914595 7.04431709 0.26036862 13.21232943 -4 19 C-6.02734375 19.71484375 -6.02734375 19.71484375 -8 20 C-9.3479743 20.63654342 -10.68596724 21.29605388 -12 22 C-10.10846627 19.56802807 -8.32347246 17.2830384 -6 15.25 C-3.47615371 12.41067293 -2.76982194 9.89222121 -1.75 6.25 C-1.24726562 4.49429687 -1.24726562 4.49429687 -0.734375 2.703125 C-0.49203125 1.81109375 -0.2496875 0.9190625 0 0 Z " fill="#3C8839" transform="translate(49,22)"/>
<path d="M0 0 C0.99 0.33 1.98 0.66 3 1 C3 4.63 3 8.26 3 12 C1.68 12.33 0.36 12.66 -1 13 C-1.02686553 11.02090602 -1.04633375 9.04171029 -1.0625 7.0625 C-1.07410156 5.96035156 -1.08570312 4.85820312 -1.09765625 3.72265625 C-1 1 -1 1 0 0 Z " fill="#0F0F0F" transform="translate(88,21)"/>
<path d="M0 0 C0.66 0 1.32 0 2 0 C3.26237731 2.52475462 3.09856404 4.31200466 3.0625 7.125 C3.05347656 8.03507812 3.04445312 8.94515625 3.03515625 9.8828125 C3.02355469 10.58148438 3.01195312 11.28015625 3 12 C1.68 12.33 0.36 12.66 -1 13 C-1.02686553 11.02090602 -1.04633375 9.04171029 -1.0625 7.0625 C-1.07410156 5.96035156 -1.08570312 4.85820312 -1.09765625 3.72265625 C-1 1 -1 1 0 0 Z " fill="#071006" transform="translate(127,21)"/>
<path d="M0 0 C0.99 0.33 1.98 0.66 3 1 C3 4.63 3 8.26 3 12 C1.68 12 0.36 12 -1 12 C-1.02687279 10.18757948 -1.04633715 8.37504767 -1.0625 6.5625 C-1.07410156 5.55316406 -1.08570312 4.54382813 -1.09765625 3.50390625 C-1 1 -1 1 0 0 Z " fill="#0E0E0E" transform="translate(76,21)"/>
<path d="M0 0 C0.3403125 0.9590625 0.3403125 0.9590625 0.6875 1.9375 C1.85250896 4.27193661 1.85250896 4.27193661 4.625 4.75 C5.40875 4.8325 6.1925 4.915 7 5 C6.67 5.99 6.34 6.98 6 8 C5.360625 8.103125 4.72125 8.20625 4.0625 8.3125 C3.0415625 8.6528125 3.0415625 8.6528125 2 9 C0.6954344 11.99615946 0.6954344 11.99615946 0 15 C-0.33 15 -0.66 15 -1 15 C-1.18451025 4.44191344 -1.18451025 4.44191344 0 0 Z " fill="#333333" transform="translate(95,17)"/>
<path d="M0 0 C0.66 0.33 1.32 0.66 2 1 C1.01 2.32 0.02 3.64 -1 5 C0.32 5.66 1.64 6.32 3 7 C2.05125 7.2475 1.1025 7.495 0.125 7.75 C-3.08838835 8.661178 -3.08838835 8.661178 -4.1875 11.0625 C-4.455625 11.701875 -4.72375 12.34125 -5 13 C-5.99 13.33 -6.98 13.66 -8 14 C-6.78065514 9.96678237 -5.44045073 6.45730521 -3 3 C-2.34 3 -1.68 3 -1 3 C-0.67 2.01 -0.34 1.02 0 0 Z " fill="#0F230E" transform="translate(22,25)"/>
<path d="M0 0 C0.66 0 1.32 0 2 0 C2 1.98 2 3.96 2 6 C0.68 6 -0.64 6 -2 6 C-1.125 1.125 -1.125 1.125 0 0 Z " fill="#272727" transform="translate(100,28)"/>
<path d="M0 0 C0.99 0.33 1.98 0.66 3 1 C0.99469263 4.00796105 -0.58687035 5.72007638 -4 7 C-4.99 7 -5.98 7 -7 7 C-5.47005208 5.76302083 -3.94010417 4.52604167 -2.41015625 3.2890625 C-0.86733563 2.0333609 -0.86733563 2.0333609 0 0 Z " fill="#2D6B2B" transform="translate(44,36)"/>
</svg>
